Coordinates
version=1
nRows=12
nColumns=42
inDegrees=yes

Units are S.I. units (second, meters, Newtons, ...)
If the header above contains a line with 'inDegrees', this indicates whether rotational values are in degrees (yes) or radians (no).

endheader
time	pelvis_tilt	pelvis_list	pelvis_rotation	pelvis_tx	pelvis_ty	pelvis_tz	hip_flexion_r	hip_adduction_r	hip_rotation_r	knee_angle_r	knee_adduction_r	knee_angle_r_beta	ankle_angle_r	subtalar_angle_r	mtp_angle_r	hip_flexion_l	hip_adduction_l	hip_rotation_l	knee_angle_l	knee_adduction_l	knee_angle_l_beta	ankle_angle_l	subtalar_angle_l	mtp_angle_l	lumbar_extension	lumbar_bending	lumbar_rotation	arm_flex_r	arm_add_r	arm_rot_r	elbow_flex_r	pro_sup_r	wrist_flex_r	wrist_dev_r	arm_flex_l	arm_add_l	arm_rot_l	elbow_flex_l	pro_sup_l	wrist_flex_l	wrist_dev_l
      1.80000000	     23.88689738	      0.28425161	     -1.94452387	     -1.20274755	      0.95386621	      0.07263148	    -22.57666958	     -1.94715947	    -29.31624437	     19.63486169	    -14.02495544	      0.34269298	     23.23924088	     35.42262287	     -7.53103750	     -6.17057174	      2.28060846	      0.67879105	     26.53841371	     -2.42606185	      0.46318270	      8.19917209	    -17.70172968	     -7.53103750	    -39.68106591	     -4.06540435	      4.11481515	     16.84029673	    -13.16937466	     -2.62062437	     46.17315036	     90.00000001	      0.00000000	      0.00000000	      0.26766558	    -14.35242031	      7.99024906	     54.09621391	     90.00000001	      0.00000000	      0.00000000
      1.81000000	     23.89777094	      0.65210084	     -1.93390166	     -1.19797837	      0.95333761	      0.07020545	    -22.71227077	     -2.56629197	    -29.81333148	     20.08647086	    -14.21420466	      0.35057505	     23.69698348	     35.38302789	     -7.53039271	     -6.33805788	      2.90648129	      1.59157044	     26.83789517	     -2.17268247	      0.46840963	      7.94578179	    -18.14744140	     -7.53039271	    -39.56387702	     -4.40735746	      3.89555765	     16.46732847	    -13.30840782	     -3.06273377	     45.41044356	     90.00000001	      0.00000000	      0.00000000	      0.15777524	    -14.39845662	      7.52628461	     53.87605507	     90.00000001	      0.00000000	      0.00000000
      1.82000000	     23.97984624	      0.91743631	     -1.92794053	     -1.19321605	      0.95285345	      0.06784462	    -23.02438057	     -2.96739688	    -29.84340566	     20.28452449	    -14.36691223	      0.35403174	     23.73669114	     35.31698161	     -7.53025122	     -6.49678601	      3.36069456	      1.86083762	     27.29934212	     -2.03506037	      0.47646340	      7.97867991	    -18.18162280	     -7.53025122	    -39.51592815	     -4.65874929	      3.80082748	     15.95593879	    -13.57935492	     -3.21941205	     45.10861938	     90.00000001	      0.00000000	      0.00000000	      0.07829820	    -14.55556636	      7.38008713	     53.80128453	     90.00000001	      0.00000000	      0.00000000
      1.83000000	     23.91779133	      1.29371155	     -1.89282450	     -1.18862804	      0.95214857	      0.06528417	    -22.94138964	     -3.63602052	    -30.42943253	     21.06047943	    -14.60273814	      0.36757471	     24.11163653	     35.09480233	     -7.52972737	     -6.52559784	      3.96465487	      2.27304860	     27.61946561	     -1.90154284	      0.48205061	      8.03644401	    -18.33439404	     -7.52972737	    -39.35278175	     -4.97795516	      3.58743011	     15.56999530	    -13.77954940	     -3.60027311	     44.52741205	     90.00000001	      0.00000000	      0.00000000	      0.09473978	    -14.59173958	      6.98262588	     53.63794613	     90.00000001	      0.00000000	      0.00000000
      1.84000000	     23.88548613	      1.61370271	     -1.87638318	     -1.18408111	      0.95146660	      0.06281850	    -22.87401038	     -4.19101935	    -30.81731765	     21.83123615	    -14.90375709	      0.38102695	     24.34152027	     34.86854340	     -7.52916728	     -6.57610968	      4.48093003	      2.41987706	     27.97083617	     -1.81667997	      0.48818319	      8.11056529	    -18.36811211	     -7.52916728	    -39.21271184	     -5.26192046	      3.43136106	     15.18487622	    -13.97780055	     -3.99218088	     44.00758798	     90.00000001	      0.00000000	      0.00000000	      0.10196445	    -14.65044393	      6.56890710	     53.46382585	     90.00000001	      0.00000000	      0.00000000
      1.85000000	     23.89302562	      1.90470345	     -1.85497915	     -1.17963100	      0.95084337	      0.06037833	    -22.81273432	     -4.69837197	    -31.03363457	     22.70057352	    -15.19207754	      0.39619975	     24.31958992	     34.56531340	     -7.52886440	     -6.68101302	      4.94609771	      2.41552268	     28.29072103	     -1.75365729	      0.49376623	      8.24330997	    -18.36056415	     -7.52886440	    -39.13167695	     -5.52055422	      3.31020700	     14.74237017	    -14.26280761	     -4.24920542	     43.64469234	     90.00000001	      0.00000000	      0.00000000	      0.15561496	    -14.73499388	      6.31976725	     53.37525371	     90.00000001	      0.00000000	      0.00000000
      1.86000000	     23.84290526	      2.18104408	     -1.84307979	     -1.17529762	      0.95013871	      0.05799211	    -22.53426328	     -5.19586155	    -31.32124763	     23.87133885	    -15.63740399	      0.41663346	     24.30930561	     34.01082036	     -7.52852942	     -6.73225007	      5.38966927	      2.27343565	     28.56964137	     -1.74787782	      0.49863431	      8.40526551	    -18.31730502	     -7.52852942	    -39.00169928	     -5.77935050	      3.19742240	     14.33569155	    -14.52457588	     -4.52614243	     43.27291522	     90.00000001	      0.00000000	      0.00000000	      0.17690903	    -14.82071320	      6.03424617	     53.24247781	     90.00000001	      0.00000000	      0.00000000
      1.87000000	     23.81186497	      2.40197493	     -1.86658264	     -1.17110029	      0.94948680	      0.05565178	    -22.20815367	     -5.64789584	    -31.46789862	     25.18193720	    -16.10139326	      0.43950772	     24.19049398	     33.32895010	     -7.52822685	     -6.80948180	      5.76235815	      2.01622075	     28.82216793	     -1.73120993	      0.50304173	      8.59678315	    -18.25292202	     -7.52822685	    -38.90041205	     -5.97394340	      3.09760264	     13.96266512	    -14.79542388	     -4.78918993	     42.93166891	     90.00000001	      0.00000000	      0.00000000	      0.26252045	    -14.90175001	      5.76133598	     53.13328143	     90.00000001	      0.00000000	      0.00000000
      1.88000000	     23.78287393	      2.59829819	     -1.87699971	     -1.16702144	      0.94887302	      0.05341678	    -21.78660688	     -6.03711525	    -31.50988971	     26.70118404	    -16.63337786	      0.46602358	     23.95456268	     32.40860167	     -7.52793065	     -6.89684234	      6.09139011	      1.67242082	     29.05415021	     -1.74783609	      0.50709058	      8.82361414	    -18.15854275	     -7.52793065	    -38.81659073	     -6.16830487	      3.02628342	     13.60014934	    -15.07326771	     -5.05594608	     42.60143140	     90.00000001	      0.00000000	      0.00000000	      0.34142911	    -14.97921104	      5.48286675	     53.02091009	     90.00000001	      0.00000000	      0.00000000
      1.89000000	     23.68817392	      2.67270819	     -1.87930618	     -1.16319289	      0.94837802	      0.05125202	    -21.32717946	     -6.05828284	    -29.89242815	     28.48732725	    -16.70306646	      0.49719766	     23.48888268	     27.97127577	     -7.52571317	     -6.87483033	      6.26659676	      1.20318164	     29.36328459	     -1.80121797	      0.51248600	      9.12009751	    -17.94267200	     -7.52571317	    -38.69461462	     -6.23013695	      2.96508660	     13.47836095	    -15.07691610	     -6.27501674	     41.82335838	     90.00000001	      0.00000000	      0.00000000	      0.52028860	    -14.71061022	      4.14979914	     52.49241630	     90.00000001	      0.00000000	      0.00000000
      1.90000000	     23.66643962	      2.84527953	     -1.94277741	     -1.15925335	      0.94786103	      0.04917384	    -20.72892037	     -6.45414859	    -29.83886910	     30.35026332	    -17.26093273	      0.52971202	     22.91679465	     26.98737217	     -7.52534010	     -7.01674473	      6.59372752	      0.82195811	     29.52291736	     -1.89420189	      0.51527211	      9.41831704	    -17.84998311	     -7.52534010	    -38.59250371	     -6.43348525	      2.97948063	     13.06963443	    -15.37054086	     -6.47091267	     41.62242222	     90.00000001	      0.00000000	      0.00000000	      0.59864863	    -14.80932593	      4.00067469	     52.52089775	     90.00000001	      0.00000000	      0.00000000
      1.91000000	     23.68436416	      2.92306770	     -2.00883964	     -1.15563342	      0.94746635	      0.04716351	    -20.08278861	     -6.69635941	    -29.32537762	     32.46808814	    -17.71206437	      0.56667504	     22.21233419	     25.23480720	     -7.52494008	     -7.17882540	      6.76607870	      0.35832600	     29.68894184	     -1.88617526	      0.51816979	      9.76445446	    -17.70319515	     -7.52494008	    -38.62778931	     -6.52810893	      2.98188049	     12.74332472	    -15.69110514	     -6.69562186	     41.40189172	     90.00000001	      0.00000000	      0.00000000	      0.73386135	    -14.89196749	      3.81505218	     52.52196085	     90.00000001	      0.00000000	      0.00000000
